<svg width="1800" height="1500" viewBox="0 0 1800 1500" fill="none" xmlns="http://www.w3.org/2000/svg">
<rect width="1800" height="1500" fill="white"/>
<path d="M900.316 606.011C906.24 587.611 896.126 567.893 877.726 561.969C859.326 556.046 839.608 566.16 833.684 584.56L900.316 606.011ZM452.784 410.176L441.961 376.892L375.392 398.539L386.216 431.824L452.784 410.176ZM491.203 641.5L457.919 652.324L491.203 641.5ZM851.834 642.393L818.518 631.667V631.667L851.834 642.393ZM703.834 1102.1L737.15 1112.83L703.834 1102.1ZM386.216 431.824L457.919 652.324L524.487 630.676L452.784 410.176L386.216 431.824ZM457.919 652.324L607.729 1113.02L674.298 1091.37L524.487 630.676L457.919 652.324ZM818.518 631.667L670.518 1091.38L737.15 1112.83L885.15 653.119L818.518 631.667ZM833.684 584.56L818.518 631.667L885.15 653.119L900.316 606.011L833.684 584.56ZM672.409 1090C673.269 1090 674.032 1090.55 674.298 1091.37L607.729 1113.02C616.839 1141.03 642.95 1160 672.409 1160V1090ZM672.409 1160C701.942 1160 728.099 1140.94 737.15 1112.83L670.518 1091.38C670.782 1090.56 671.546 1090 672.409 1090V1160Z" fill="#281910"/>
<path d="M914.79 1126L1037.01 746.368C1041.29 733.067 1050.94 722.165 1063.63 716.303L1145.59 678.424L1242.34 633.712L1312.4 601.335C1328.88 593.721 1348.18 595.633 1362.85 606.33L1496.99 704.194C1514.42 716.911 1521.72 739.373 1515.11 759.91L1482.73 860.5L1397.25 1126M1567.08 598.5L1473.23 890" stroke="#281910" stroke-width="70" stroke-linecap="round"/>
<path fill-rule="evenodd" clip-rule="evenodd" d="M1494.51 628.116L1507.58 587.512C1482.73 334.6 1269.44 137 1010 137C768.313 137 566.677 308.48 520.122 536.41L548.262 622.945L672.28 1004.32L779.555 671.113L794.721 624.006L809.887 576.898C820.042 545.356 853.845 528.017 885.387 538.172C916.93 548.327 934.268 582.13 924.113 613.673L908.947 660.78L893.782 707.887L774.559 1078.21C800.502 1092.08 827.81 1103.73 856.231 1112.91C856.629 1111.14 857.11 1109.37 857.677 1107.61L979.897 727.981C989.317 698.719 1010.55 674.734 1038.46 661.838L1120.42 623.959L1217.17 579.247L1287.23 546.87C1323.48 530.119 1365.95 534.325 1398.21 557.858L1494.51 628.116ZM1416.11 871.646L1385.27 967.417C1293.65 1071.4 1159.49 1137 1010 1137C998.124 1137 986.345 1136.59 974.677 1135.77L1092.78 768.929L1170.76 732.89L1267.51 688.177L1332.23 658.267L1455.78 748.405L1425.62 842.113L1416.12 871.613L1416.11 871.646Z" fill="url(#paint0_linear_340_149)"/>
<path d="M115.64 354.869C115.64 260.869 153.179 241.498 189.437 226.765C225.695 212.033 283.728 200.934 338.92 194.005C385.326 188.179 493.248 226.377 521 226.765C612.953 228.052 600.797 200.715 675.535 235.972C740.117 266.439 734.293 333.371 721.776 377.525C714.752 402.304 686.838 413.977 661.458 409.596C628.876 403.971 575.27 397.354 491.14 393.369C418.042 389.907 335.411 466.848 228.992 474.946C220.673 475.579 212.362 473.568 204.961 469.72C137.688 434.742 115.64 418.436 115.64 354.869Z" fill="#117C3C"/>
<path d="M654.144 631.976C636.144 760.827 567.644 856.664 564.144 868.976" stroke="#281910" stroke-width="30"/>
<path d="M535.459 627.123C535.459 584.867 552.334 576.159 568.633 569.536C584.933 562.913 592.334 555.59 617.144 552.476C638.005 549.856 644.563 559.809 684.644 569.536C744.144 583.975 721.643 611.273 755.241 627.123C767.298 632.811 776.157 637.541 782.665 641.42C795.567 649.111 794.055 662.047 781.173 669.772C758.667 683.269 718.437 701.775 669.741 699.468C638.691 697.998 632.34 683.316 593.422 681.512C585.088 681.126 576.779 679.434 569.426 675.494C544.002 661.87 535.459 653.653 535.459 627.123Z" fill="#117C3C"/>
<path d="M282.878 588.808C379.491 675.944 493.568 705.328 504.163 712.51" stroke="#281910" stroke-width="30"/>
<path d="M176.55 672.672C181.727 684.473 180.984 689.876 197.727 684.473C214.469 679.069 225.719 686.233 246.727 672.672C264.391 661.269 288.775 691.188 313.227 657.973C349.525 608.666 345.393 621.21 360.942 587.473C371.74 564.043 371.416 536.189 368.562 514.683C365.748 493.482 346.442 479.761 325.538 484.278C299.606 489.882 263.712 502.505 232.913 530.938C210.073 552.022 214.644 567.351 185.991 593.749C179.855 599.402 174.506 606.012 171.664 613.854C162.307 639.669 165.925 648.452 176.55 672.672Z" fill="#117C3C"/>
<path d="M148.778 1387L99.6781 1247H124.478L156.578 1342.5C157.111 1344.03 157.645 1345.73 158.178 1347.6C158.778 1349.47 159.278 1351.27 159.678 1353C160.078 1351.33 160.545 1349.6 161.078 1347.8C161.611 1346 162.145 1344.23 162.678 1342.5L194.178 1247H218.878L169.978 1387H148.778ZM242.653 1387V1284.8H265.053V1387H242.653ZM253.753 1270C250.086 1270 246.953 1268.7 244.353 1266.1C241.753 1263.5 240.453 1260.37 240.453 1256.7C240.453 1252.97 241.72 1249.8 244.253 1247.2C246.853 1244.53 250.02 1243.2 253.753 1243.2C257.62 1243.2 260.82 1244.5 263.353 1247.1C265.953 1249.7 267.253 1252.9 267.253 1256.7C267.253 1260.43 265.953 1263.6 263.353 1266.2C260.753 1268.73 257.553 1270 253.753 1270ZM297.141 1387V1284.8H319.541V1294.8C322.741 1290.6 326.574 1287.5 331.041 1285.5C335.574 1283.43 340.741 1282.4 346.541 1282.4C358.341 1282.4 367.307 1286 373.441 1293.2C379.574 1300.4 382.641 1310.97 382.641 1324.9V1387H360.141V1329C360.141 1320.47 358.507 1314.1 355.241 1309.9C352.041 1305.7 347.174 1303.6 340.641 1303.6C333.574 1303.6 328.274 1305.67 324.741 1309.8C321.274 1313.93 319.541 1320.2 319.541 1328.6V1387H297.141ZM454.209 1389.4C444.943 1389.4 436.976 1387.27 430.309 1383C423.643 1378.67 418.509 1372.5 414.909 1364.5C411.309 1356.5 409.509 1347 409.509 1336C409.509 1325 411.343 1315.5 415.009 1307.5C418.676 1299.43 423.876 1293.23 430.609 1288.9C437.343 1284.57 445.376 1282.4 454.709 1282.4C464.643 1282.4 472.976 1284.73 479.709 1289.4C486.443 1294 491.343 1300.77 494.409 1309.7L473.109 1317.1C471.443 1312.77 469.043 1309.43 465.909 1307.1C462.843 1304.77 459.176 1303.6 454.909 1303.6C447.843 1303.6 442.309 1306.47 438.309 1312.2C434.309 1317.93 432.309 1325.87 432.309 1336C432.309 1346 434.276 1353.83 438.209 1359.5C442.143 1365.17 447.543 1368 454.409 1368C459.076 1368 463.076 1366.73 466.409 1364.2C469.743 1361.6 472.176 1357.9 473.709 1353.1L494.909 1359.6C492.043 1369.33 487.109 1376.73 480.109 1381.8C473.176 1386.87 464.543 1389.4 454.209 1389.4ZM561.873 1389.4C552.207 1389.4 543.873 1387.17 536.873 1382.7C529.873 1378.23 524.507 1372 520.773 1364C517.04 1355.93 515.173 1346.53 515.173 1335.8C515.173 1324.67 517.107 1315.13 520.973 1307.2C524.84 1299.2 530.273 1293.07 537.273 1288.8C544.273 1284.53 552.473 1282.4 561.873 1282.4C569.94 1282.4 577.273 1284.13 583.873 1287.6C590.54 1291.07 595.84 1296.4 599.773 1303.6C603.707 1310.73 605.673 1319.83 605.673 1330.9C605.673 1332.63 605.64 1334.7 605.573 1337.1C605.507 1339.43 605.307 1341.8 604.973 1344.2H537.473C537.873 1349.4 539.107 1353.93 541.173 1357.8C543.307 1361.67 546.14 1364.7 549.673 1366.9C553.207 1369.03 557.373 1370.1 562.173 1370.1C566.84 1370.1 570.973 1369.33 574.573 1367.8C578.173 1366.2 581.607 1363.67 584.873 1360.2L597.873 1373.9C593.673 1378.5 588.54 1382.23 582.473 1385.1C576.473 1387.97 569.607 1389.4 561.873 1389.4ZM537.573 1326.1H583.673C583.473 1321.23 582.473 1316.97 580.673 1313.3C578.94 1309.63 576.473 1306.8 573.273 1304.8C570.073 1302.73 566.173 1301.7 561.573 1301.7C555.173 1301.7 549.707 1303.7 545.173 1307.7C540.707 1311.7 538.173 1317.83 537.573 1326.1ZM631.906 1387V1284.8H654.306V1294.8C657.506 1290.6 661.34 1287.5 665.806 1285.5C670.34 1283.43 675.506 1282.4 681.306 1282.4C693.106 1282.4 702.073 1286 708.206 1293.2C714.34 1300.4 717.406 1310.97 717.406 1324.9V1387H694.906V1329C694.906 1320.47 693.273 1314.1 690.006 1309.9C686.806 1305.7 681.94 1303.6 675.406 1303.6C668.34 1303.6 663.04 1305.67 659.506 1309.8C656.04 1313.93 654.306 1320.2 654.306 1328.6V1387H631.906ZM774.583 1389.4C766.849 1389.4 761.016 1387.2 757.083 1382.8C753.149 1378.4 751.183 1371.97 751.183 1363.5V1304.5H735.683V1284.8H751.183V1253.3L773.583 1242.6V1284.8H797.383V1304.5H773.583V1358.6C773.583 1362.27 774.283 1365 775.683 1366.8C777.149 1368.53 779.383 1369.4 782.383 1369.4C787.249 1369.4 792.549 1367.8 798.283 1364.6L795.783 1384.8C792.649 1386.33 789.349 1387.47 785.883 1388.2C782.416 1389 778.649 1389.4 774.583 1389.4ZM936.745 1389.4L900.145 1308C899.545 1306.47 898.879 1304.8 898.145 1303C897.479 1301.2 896.845 1299.5 896.245 1297.9C896.379 1299.23 896.479 1300.9 896.545 1302.9C896.612 1304.83 896.645 1306.53 896.645 1308V1387H873.545V1247H896.245L933.545 1331.4C934.212 1332.87 934.812 1334.33 935.345 1335.8C935.945 1337.27 936.512 1338.8 937.045 1340.4C937.579 1338.87 938.112 1337.37 938.645 1335.9C939.245 1334.37 939.879 1332.87 940.545 1331.4L978.145 1247H999.845V1387H976.745V1308C976.745 1306.4 976.779 1304.6 976.845 1302.6C976.912 1300.53 976.979 1298.93 977.045 1297.8C976.445 1299.27 975.745 1300.97 974.945 1302.9C974.212 1304.83 973.545 1306.53 972.945 1308L936.745 1389.4ZM1061.71 1389.4C1050.51 1389.4 1041.71 1386.37 1035.31 1380.3C1028.91 1374.23 1025.71 1366 1025.71 1355.6C1025.71 1348.8 1027.34 1342.9 1030.61 1337.9C1033.88 1332.83 1038.48 1328.93 1044.41 1326.2C1050.34 1323.4 1057.28 1322 1065.21 1322C1069.88 1322 1074.31 1322.47 1078.51 1323.4C1082.78 1324.27 1086.58 1325.6 1089.91 1327.4V1320.8C1089.91 1314.27 1088.24 1309.43 1084.91 1306.3C1081.58 1303.1 1076.54 1301.5 1069.81 1301.5C1064.88 1301.5 1059.78 1302.4 1054.51 1304.2C1049.24 1306 1044.08 1308.6 1039.01 1312L1032.31 1294.1C1037.91 1290.37 1044.21 1287.5 1051.21 1285.5C1058.21 1283.43 1065.24 1282.4 1072.31 1282.4C1085.44 1282.4 1095.28 1285.6 1101.81 1292C1108.41 1298.33 1111.71 1307.87 1111.71 1320.6V1387H1089.91V1378.4C1086.31 1381.93 1082.08 1384.67 1077.21 1386.6C1072.34 1388.47 1067.18 1389.4 1061.71 1389.4ZM1066.31 1370.3C1070.64 1370.3 1074.84 1369.37 1078.91 1367.5C1083.04 1365.63 1086.71 1362.97 1089.91 1359.5V1345.6C1086.91 1343.93 1083.51 1342.67 1079.71 1341.8C1075.98 1340.87 1072.31 1340.4 1068.71 1340.4C1062.04 1340.4 1056.81 1341.77 1053.01 1344.5C1049.21 1347.17 1047.31 1350.87 1047.31 1355.6C1047.31 1360.13 1048.98 1363.73 1052.31 1366.4C1055.64 1369 1060.31 1370.3 1066.31 1370.3ZM1173.29 1389.4C1165.62 1389.4 1158.25 1387.77 1151.19 1384.5C1144.12 1381.17 1138.45 1376.73 1134.19 1371.2L1149.19 1358.4C1152.72 1362.07 1156.69 1364.97 1161.09 1367.1C1165.49 1369.23 1169.79 1370.3 1173.99 1370.3C1179.32 1370.3 1183.45 1369.37 1186.39 1367.5C1189.32 1365.57 1190.79 1362.87 1190.79 1359.4C1190.79 1357.27 1190.12 1355.33 1188.79 1353.6C1187.45 1351.8 1185.12 1350.03 1181.79 1348.3C1178.45 1346.57 1173.85 1344.6 1167.99 1342.4C1156.52 1338.2 1148.39 1333.67 1143.59 1328.8C1138.79 1323.87 1136.39 1317.7 1136.39 1310.3C1136.39 1301.97 1139.72 1295.23 1146.39 1290.1C1153.05 1284.97 1161.72 1282.4 1172.39 1282.4C1179.65 1282.4 1186.35 1283.8 1192.49 1286.6C1198.69 1289.33 1204.02 1293.3 1208.49 1298.5L1193.59 1310.8C1187.52 1304.6 1180.32 1301.5 1171.99 1301.5C1167.52 1301.5 1163.95 1302.37 1161.29 1304.1C1158.62 1305.77 1157.29 1308 1157.29 1310.8C1157.29 1313.6 1158.82 1316.1 1161.89 1318.3C1165.02 1320.43 1170.75 1322.93 1179.09 1325.8C1186.69 1328.33 1192.89 1331.17 1197.69 1334.3C1202.55 1337.43 1206.09 1341.03 1208.29 1345.1C1210.55 1349.17 1211.69 1353.87 1211.69 1359.2C1211.69 1368.6 1208.25 1376 1201.39 1381.4C1194.59 1386.73 1185.22 1389.4 1173.29 1389.4ZM1270.16 1389.4C1262.49 1389.4 1255.13 1387.77 1248.06 1384.5C1240.99 1381.17 1235.33 1376.73 1231.06 1371.2L1246.06 1358.4C1249.59 1362.07 1253.56 1364.97 1257.96 1367.1C1262.36 1369.23 1266.66 1370.3 1270.86 1370.3C1276.19 1370.3 1280.33 1369.37 1283.26 1367.5C1286.19 1365.57 1287.66 1362.87 1287.66 1359.4C1287.66 1357.27 1286.99 1355.33 1285.66 1353.6C1284.33 1351.8 1281.99 1350.03 1278.66 1348.3C1275.33 1346.57 1270.73 1344.6 1264.86 1342.4C1253.39 1338.2 1245.26 1333.67 1240.46 1328.8C1235.66 1323.87 1233.26 1317.7 1233.26 1310.3C1233.26 1301.97 1236.59 1295.23 1243.26 1290.1C1249.93 1284.97 1258.59 1282.4 1269.26 1282.4C1276.53 1282.4 1283.23 1283.8 1289.36 1286.6C1295.56 1289.33 1300.89 1293.3 1305.36 1298.5L1290.46 1310.8C1284.39 1304.6 1277.19 1301.5 1268.86 1301.5C1264.39 1301.5 1260.83 1302.37 1258.16 1304.1C1255.49 1305.77 1254.16 1308 1254.16 1310.8C1254.16 1313.6 1255.69 1316.1 1258.76 1318.3C1261.89 1320.43 1267.63 1322.93 1275.96 1325.8C1283.56 1328.33 1289.76 1331.17 1294.56 1334.3C1299.43 1337.43 1302.96 1341.03 1305.16 1345.1C1307.43 1349.17 1308.56 1353.87 1308.56 1359.2C1308.56 1368.6 1305.13 1376 1298.26 1381.4C1291.46 1386.73 1282.09 1389.4 1270.16 1389.4ZM1373.98 1389.4C1364.32 1389.4 1355.98 1387.17 1348.98 1382.7C1341.98 1378.23 1336.62 1372 1332.88 1364C1329.15 1355.93 1327.28 1346.53 1327.28 1335.8C1327.28 1324.67 1329.22 1315.13 1333.08 1307.2C1336.95 1299.2 1342.38 1293.07 1349.38 1288.8C1356.38 1284.53 1364.58 1282.4 1373.98 1282.4C1382.05 1282.4 1389.38 1284.13 1395.98 1287.6C1402.65 1291.07 1407.95 1296.4 1411.88 1303.6C1415.82 1310.73 1417.78 1319.83 1417.78 1330.9C1417.78 1332.63 1417.75 1334.7 1417.68 1337.1C1417.62 1339.43 1417.42 1341.8 1417.08 1344.2H1349.58C1349.98 1349.4 1351.22 1353.93 1353.28 1357.8C1355.42 1361.67 1358.25 1364.7 1361.78 1366.9C1365.32 1369.03 1369.48 1370.1 1374.28 1370.1C1378.95 1370.1 1383.08 1369.33 1386.68 1367.8C1390.28 1366.2 1393.72 1363.67 1396.98 1360.2L1409.98 1373.9C1405.78 1378.5 1400.65 1382.23 1394.58 1385.1C1388.58 1387.97 1381.72 1389.4 1373.98 1389.4ZM1349.68 1326.1H1395.78C1395.58 1321.23 1394.58 1316.97 1392.78 1313.3C1391.05 1309.63 1388.58 1306.8 1385.38 1304.8C1382.18 1302.73 1378.28 1301.7 1373.68 1301.7C1367.28 1301.7 1361.82 1303.7 1357.28 1307.7C1352.82 1311.7 1350.28 1317.83 1349.68 1326.1ZM1444.02 1387V1284.8H1466.42V1296.6C1468.42 1292.2 1471.42 1288.73 1475.42 1286.2C1479.48 1283.67 1483.95 1282.4 1488.82 1282.4C1495.68 1282.4 1501.48 1284.63 1506.22 1289.1L1503.12 1309.8C1500.58 1307.8 1498.05 1306.37 1495.52 1305.5C1492.98 1304.63 1490.18 1304.2 1487.12 1304.2C1482.85 1304.2 1479.18 1305.27 1476.12 1307.4C1473.05 1309.53 1470.65 1312.57 1468.92 1316.5C1467.25 1320.43 1466.42 1325.1 1466.42 1330.5V1387H1444.02ZM1560.78 1389.4C1546.52 1389.4 1535.28 1384.63 1527.08 1375.1C1518.88 1365.57 1514.78 1352.53 1514.78 1336C1514.78 1325 1516.65 1315.5 1520.38 1307.5C1524.12 1299.5 1529.42 1293.33 1536.28 1289C1543.22 1284.6 1551.38 1282.4 1560.78 1282.4C1570.25 1282.4 1578.42 1284.57 1585.28 1288.9C1592.15 1293.23 1597.45 1299.4 1601.18 1307.4C1604.92 1315.4 1606.78 1324.9 1606.78 1335.9C1606.78 1346.9 1604.92 1356.4 1601.18 1364.4C1597.45 1372.4 1592.15 1378.57 1585.28 1382.9C1578.42 1387.23 1570.25 1389.4 1560.78 1389.4ZM1560.78 1368.1C1568.18 1368.1 1573.95 1365.27 1578.08 1359.6C1582.22 1353.93 1584.28 1346.03 1584.28 1335.9C1584.28 1325.7 1582.18 1317.77 1577.98 1312.1C1573.85 1306.43 1568.12 1303.6 1560.78 1303.6C1553.45 1303.6 1547.68 1306.47 1543.48 1312.2C1539.35 1317.87 1537.28 1325.8 1537.28 1336C1537.28 1346.07 1539.35 1353.93 1543.48 1359.6C1547.68 1365.27 1553.45 1368.1 1560.78 1368.1ZM1631.52 1387V1284.8H1653.92V1294.8C1657.12 1290.6 1660.95 1287.5 1665.42 1285.5C1669.95 1283.43 1675.12 1282.4 1680.92 1282.4C1692.72 1282.4 1701.68 1286 1707.82 1293.2C1713.95 1300.4 1717.02 1310.97 1717.02 1324.9V1387H1694.52V1329C1694.52 1320.47 1692.88 1314.1 1689.62 1309.9C1686.42 1305.7 1681.55 1303.6 1675.02 1303.6C1667.95 1303.6 1662.65 1305.67 1659.12 1309.8C1655.65 1313.93 1653.92 1320.2 1653.92 1328.6V1387H1631.52Z" fill="#281910"/>
<defs>
<linearGradient id="paint0_linear_340_149" x1="772.5" y1="1195" x2="1307.5" y2="349.5" gradientUnits="userSpaceOnUse">
<stop stop-color="#DB7F13"/>
<stop offset="1" stop-color="#FAFF01"/>
</linearGradient>
</defs>
</svg>