<svg width="16" height="12" viewBox="0 0 16 12" fill="none" xmlns="http://www.w3.org/2000/svg">
<path d="M15.0256 4.99743V2.91243C15.0256 1.67493 14.0131 0.66243 12.7756 0.66243H9.77563C9.19813 0.66243 8.67313 0.88743 8.27563 1.24743C7.87813 0.88743 7.35313 0.66243 6.77563 0.66243H3.77563C2.53813 0.66243 1.52563 1.67493 1.52563 2.91243V4.99743C1.06813 5.40993 0.775635 6.00243 0.775635 6.66243V11.1624H2.27563V9.66243H14.2756V11.1624H15.7756V6.66243C15.7756 6.00243 15.4831 5.40993 15.0256 4.99743ZM9.77563 2.16243H12.7756C13.1881 2.16243 13.5256 2.49993 13.5256 2.91243V4.41243H9.02563V2.91243C9.02563 2.49993 9.36313 2.16243 9.77563 2.16243ZM3.02563 2.91243C3.02563 2.49993 3.36313 2.16243 3.77563 2.16243H6.77563C7.18813 2.16243 7.52563 2.49993 7.52563 2.91243V4.41243H3.02563V2.91243ZM2.27563 8.16243V6.66243C2.27563 6.24993 2.61313 5.91243 3.02563 5.91243H13.5256C13.9381 5.91243 14.2756 6.24993 14.2756 6.66243V8.16243H2.27563Z" fill="#1F120B"/>
</svg>
