<svg width="133" height="133" viewBox="0 0 133 133" fill="none" xmlns="http://www.w3.org/2000/svg">
<path d="M58.186 55.4875C62.7768 55.4875 66.4985 51.7658 66.4985 47.175C66.4985 42.5841 62.7768 38.8625 58.186 38.8625C53.5951 38.8625 49.8735 42.5841 49.8735 47.175C49.8735 51.7658 53.5951 55.4875 58.186 55.4875Z" fill="#281910"/>
<path d="M47.1026 83.1958C51.6935 83.1958 55.4151 79.4742 55.4151 74.8833C55.4151 70.2924 51.6935 66.5708 47.1026 66.5708C42.5118 66.5708 38.7901 70.2924 38.7901 74.8833C38.7901 79.4742 42.5118 83.1958 47.1026 83.1958Z" fill="#281910"/>
<path d="M83.1235 88.7375C86.184 88.7375 88.6651 86.2564 88.6651 83.1958C88.6651 80.1352 86.184 77.6541 83.1235 77.6541C80.0629 77.6541 77.5818 80.1352 77.5818 83.1958C77.5818 86.2564 80.0629 88.7375 83.1235 88.7375Z" fill="#281910"/>
<path d="M121.638 60.9737C111.718 60.8075 101.134 50.1675 106.786 37.5879C90.3276 43.1295 74.7555 28.7766 78.0251 12.3179C39.3997 4.17163 11.0818 35.5929 11.0818 66.5708C11.0818 97.1608 35.9085 121.987 66.4985 121.987C99.1389 121.987 124.908 93.8358 121.638 60.9737ZM66.4985 110.904C42.0597 110.904 22.1651 91.0095 22.1651 66.5708C22.1651 48.2279 37.2939 21.24 66.9418 22.1266C69.2693 36.2025 80.4635 47.3966 94.5947 49.5025C94.9826 51.4975 97.4764 63.6337 110.776 69.6187C109.169 93.5033 88.9976 110.904 66.4985 110.904Z" fill="#281910"/>
</svg>
