<svg width="319" height="294" viewBox="0 0 319 294" fill="none" xmlns="http://www.w3.org/2000/svg">
<path d="M112.6 286L7.9425 238.825C7.36883 238.566 7 237.995 7 237.366V122.4V10.4762C7 9.31476 8.19862 8.54029 9.2575 9.01759L112.6 55.6M112.6 286L206.2 238.4M112.6 286V228V170V55.6M112.6 55.6L206.2 8M206.2 8V122.4V238.4M206.2 8L310.857 55.1752C311.431 55.4337 311.8 56.0046 311.8 56.6338V170V283.524C311.8 284.685 310.601 285.46 309.542 284.982L206.2 238.4" stroke="#1F120B" stroke-width="12.8"/>
<path d="M150.184 169.091C150.198 165.7 150.5 162.621 151.159 159.868C151.887 156.966 153.069 153.941 154.731 150.822C156.448 147.648 158.783 144.068 161.737 140.081C165.309 135.225 168.042 131.306 169.979 128.336C171.985 125.311 173.414 122.653 174.238 120.347C175.062 118.069 175.474 115.614 175.474 112.969C175.474 108.738 174.046 106.229 171.216 105.429C168.358 104.615 164.237 105.632 158.852 108.467C154.36 110.827 150.376 113.485 146.901 116.482C143.411 119.371 140.073 122.422 136.859 125.65C135.439 123.254 134.02 120.858 132.6 118.462C136.254 114.665 140.307 110.989 144.689 107.436C149.167 103.842 154.181 100.614 159.676 97.7524C168.358 93.2361 175.09 91.8121 179.856 93.4667C184.623 95.0942 187.014 99.4477 187 106.554C187 110.501 186.313 114.231 184.939 117.784C183.648 121.175 181.78 124.742 179.307 128.458C176.93 132.025 174.087 136.039 170.79 140.474C167.781 144.583 165.446 148.042 163.784 150.808C162.218 153.521 161.187 155.962 160.638 158.132C160.088 160.194 159.8 162.526 159.814 165.103C159.814 165.863 159.809 166.618 159.8 167.368C156.604 169.149 153.403 170.931 150.198 172.712C150.198 171.509 150.193 170.302 150.184 169.091ZM147.038 194.154C147.038 190.858 147.793 188.105 149.373 185.894C151.022 183.629 153.082 181.812 155.555 180.415C157.836 179.14 159.814 178.706 161.448 179.113C163.111 179.507 163.935 181.351 163.921 184.62C163.921 187.82 163.111 190.601 161.448 192.96C159.814 195.307 157.822 197.151 155.555 198.44C153.082 199.85 151.022 200.298 149.373 199.809C147.793 199.267 147.024 197.382 147.038 194.154Z" fill="#1F120B"/>
</svg>
