<svg width="250" height="250" viewBox="0 0 250 250" fill="none" xmlns="http://www.w3.org/2000/svg">
<path d="M165.666 137.086L143.569 159.183L206.029 221.644L228.126 199.547L165.666 137.086Z" fill="black"/>
<path d="M182.291 105.31C202.395 105.31 218.749 88.9554 218.749 68.8512C218.749 62.8096 217.082 57.1846 214.478 52.1846L186.353 80.3096L170.832 64.7887L198.957 36.6637C193.957 34.0596 188.332 32.3929 182.291 32.3929C162.186 32.3929 145.832 48.7471 145.832 68.8512C145.832 73.1221 146.666 77.1846 148.02 80.9346L128.749 100.205L110.207 81.6637L117.603 74.2679L102.916 59.5804L124.999 37.4971C112.811 25.3096 93.0198 25.3096 80.8323 37.4971L43.9573 74.3721L58.6448 89.0596H29.2698L21.874 96.4554L58.749 133.33L66.1448 125.935V96.4554L80.8323 111.143L88.2281 103.747L106.77 122.289L29.5823 199.476L51.6656 221.56L170.207 103.122C173.957 104.476 178.02 105.31 182.291 105.31Z" fill="black"/>
</svg>
