<svg width="1529" height="1100" viewBox="0 0 1529 1100" fill="none" xmlns="http://www.w3.org/2000/svg">
<path d="M826.316 544.011C832.24 525.611 822.126 505.893 803.726 499.969C785.326 494.046 765.608 504.16 759.684 522.56L826.316 544.011ZM378.784 348.176L367.961 314.892L301.392 336.539L312.216 369.824L378.784 348.176ZM417.203 579.5L383.919 590.324L417.203 579.5ZM777.834 580.393L744.518 569.667V569.667L777.834 580.393ZM629.834 1040.1L663.15 1050.83L629.834 1040.1ZM312.216 369.824L383.919 590.324L450.487 568.676L378.784 348.176L312.216 369.824ZM383.919 590.324L533.729 1051.02L600.298 1029.37L450.487 568.676L383.919 590.324ZM744.518 569.667L596.518 1029.38L663.15 1050.83L811.15 591.119L744.518 569.667ZM759.684 522.56L744.518 569.667L811.15 591.119L826.316 544.011L759.684 522.56ZM598.409 1028C599.269 1028 600.032 1028.55 600.298 1029.37L533.729 1051.02C542.839 1079.03 568.95 1098 598.409 1098V1028ZM598.409 1098C627.942 1098 654.099 1078.94 663.15 1050.83L596.518 1029.38C596.782 1028.56 597.546 1028 598.409 1028V1098Z" fill="#281910"/>
<path d="M840.79 1064L963.01 684.368C967.292 671.067 976.944 660.165 989.628 654.303L1071.59 616.424L1168.34 571.712L1238.4 539.335C1254.88 531.721 1274.18 533.633 1288.85 544.33L1422.99 642.194C1440.42 654.911 1447.72 677.373 1441.11 697.91L1408.73 798.5L1323.25 1064M1493.08 536.5L1399.23 828" stroke="#281910" stroke-width="70" stroke-linecap="round"/>
<path fill-rule="evenodd" clip-rule="evenodd" d="M1420.51 566.116L1433.58 525.512C1408.73 272.6 1195.44 75 936 75C694.313 75 492.677 246.48 446.122 474.41L474.262 560.945L598.28 942.324L705.555 609.113L720.721 562.006L735.887 514.898C746.042 483.356 779.845 466.017 811.387 476.172C842.93 486.327 860.268 520.13 850.113 551.673L834.947 598.78L819.782 645.887L700.559 1016.21C726.502 1030.08 753.81 1041.73 782.231 1050.91C782.629 1049.14 783.11 1047.37 783.677 1045.61L905.897 665.981C915.317 636.719 936.553 612.734 964.458 599.838L1046.42 561.959L1143.17 517.247L1213.23 484.87C1249.48 468.119 1291.95 472.325 1324.21 495.858L1420.51 566.116ZM1342.11 809.646L1311.27 905.417C1219.65 1009.4 1085.49 1075 936 1075C924.124 1075 912.345 1074.59 900.677 1073.77L1018.78 706.929L1096.76 670.89L1193.51 626.177L1258.23 596.267L1381.78 686.405L1351.62 780.113L1342.12 809.613L1342.11 809.646Z" fill="url(#paint0_linear_340_151)"/>
<path d="M41.6398 292.869C41.6398 198.869 79.1793 179.498 115.437 164.765C151.695 150.033 209.728 138.934 264.92 132.005C311.326 126.179 419.248 164.377 447 164.765C538.953 166.052 526.797 138.715 601.535 173.972C666.117 204.439 660.293 271.371 647.776 315.525C640.752 340.304 612.838 351.977 587.458 347.596C554.876 341.971 501.27 335.354 417.14 331.369C344.042 327.907 261.411 404.848 154.992 412.946C146.673 413.579 138.362 411.568 130.961 407.72C63.6883 372.742 41.6398 356.436 41.6398 292.869Z" fill="#117C3C"/>
<path d="M580.144 569.976C562.144 698.827 493.644 794.664 490.144 806.976" stroke="#281910" stroke-width="30"/>
<path d="M461.459 565.123C461.459 522.867 478.334 514.159 494.633 507.536C510.932 500.913 518.334 493.59 543.144 490.476C564.005 487.856 570.563 497.809 610.644 507.536C670.144 521.975 647.643 549.273 681.24 565.123C693.298 570.811 702.157 575.541 708.665 579.42C721.567 587.111 720.055 600.047 707.173 607.772C684.667 621.269 644.437 639.775 595.74 637.468C564.691 635.998 558.34 621.316 519.421 619.512C511.088 619.126 502.779 617.434 495.426 613.494C470.002 599.87 461.459 591.653 461.459 565.123Z" fill="#117C3C"/>
<path d="M208.878 526.808C305.491 613.944 419.568 643.328 430.163 650.51" stroke="#281910" stroke-width="30"/>
<path d="M102.55 610.672C107.727 622.473 106.984 627.876 123.727 622.473C140.47 617.069 151.719 624.233 172.727 610.672C190.391 599.269 214.775 629.188 239.227 595.973C275.525 546.666 271.393 559.21 286.942 525.473C297.741 502.043 297.417 474.189 294.562 452.683C291.748 431.482 272.442 417.761 251.538 422.278C225.606 427.882 189.712 440.505 158.913 468.938C136.073 490.022 140.645 505.351 111.991 531.749C105.855 537.402 100.507 544.012 97.6638 551.854C88.3069 577.669 91.925 586.452 102.55 610.672Z" fill="#117C3C"/>
<defs>
<linearGradient id="paint0_linear_340_151" x1="698.5" y1="1133" x2="1233.5" y2="287.5" gradientUnits="userSpaceOnUse">
<stop stop-color="#DB7F13"/>
<stop offset="1" stop-color="#FAFF01"/>
</linearGradient>
</defs>
</svg>
