<svg width="400" height="400" viewBox="0 0 400 400" fill="none" xmlns="http://www.w3.org/2000/svg">
<path d="M206.579 188.753C208.06 184.153 205.531 179.223 200.931 177.742C196.331 176.261 191.402 178.79 189.921 183.39L206.579 188.753ZM94.6961 139.794L91.9902 131.473L75.348 136.885L78.0539 145.206L94.6961 139.794ZM104.301 197.625L95.9797 200.331L104.301 197.625ZM194.459 197.848L186.13 195.167L186.13 195.167L194.459 197.848ZM157.458 312.776L165.787 315.457L157.458 312.776ZM78.0539 145.206L95.9797 200.331L112.622 194.919L94.6961 139.794L78.0539 145.206ZM95.9797 200.331L133.432 315.505L150.075 310.093L112.622 194.919L95.9797 200.331ZM186.13 195.167L149.129 310.094L165.787 315.457L202.788 200.53L186.13 195.167ZM189.921 183.39L186.13 195.167L202.788 200.53L206.579 188.753L189.921 183.39ZM149.602 309.75C149.817 309.75 150.008 309.889 150.075 310.093L133.432 315.505C135.71 322.509 142.237 327.25 149.602 327.25V309.75ZM149.602 327.25C156.985 327.25 163.525 322.485 165.787 315.457L149.129 310.094C149.196 309.889 149.387 309.75 149.602 309.75V327.25Z" fill="#281910"/>
<path d="M210.197 318.75L240.752 223.842C241.823 220.517 244.236 217.791 247.407 216.326L267.898 206.856L292.085 195.678L309.6 187.584C313.719 185.68 318.546 186.158 322.211 188.832L355.747 213.299C360.104 216.478 361.931 222.093 360.278 227.227L352.182 252.375L330.813 318.75M373.269 186.875L349.807 259.75" stroke="#281910" stroke-width="17.5" stroke-linecap="round"/>
<path fill-rule="evenodd" clip-rule="evenodd" d="M355.127 194.279L358.395 184.128C352.183 120.9 298.86 71.5 234 71.5C173.578 71.5 123.169 114.37 111.53 171.353L118.565 192.986L149.57 288.331L176.388 205.028L180.18 193.251L183.971 181.475C186.51 173.589 194.961 169.254 202.846 171.793C210.732 174.332 215.067 182.782 212.528 190.668L208.736 202.445L204.945 214.222L175.139 306.802C181.625 310.27 188.452 313.183 195.558 315.477C195.657 315.035 195.777 314.593 195.919 314.153L226.474 219.245C228.829 211.93 234.138 205.934 241.114 202.71L261.605 193.24L285.793 182.062L303.307 173.967C312.369 169.78 322.988 170.831 331.052 176.715L355.127 194.279ZM335.527 255.161L327.818 279.104C304.912 305.1 271.371 321.5 234 321.5C231.031 321.5 228.086 321.396 225.169 321.193L254.695 229.482L274.19 220.472L298.378 209.294L314.558 201.817L345.446 224.351L337.904 247.778L335.529 255.153L335.527 255.161Z" fill="url(#paint0_linear_1198_2898)"/>
<path d="M10.4101 125.967C10.4101 102.467 19.795 97.6245 28.8594 93.9413C37.9239 90.2582 52.4322 87.4835 66.23 85.7512C77.8316 84.2947 104.812 93.8443 111.75 93.9413C134.738 94.2629 131.699 87.4287 150.384 96.2431C166.529 103.86 165.073 120.593 161.944 131.631C160.188 137.826 153.21 140.744 146.865 139.649C138.719 138.243 125.318 136.589 104.285 135.592C86.0107 134.727 65.3529 153.962 38.748 155.987C36.6685 156.145 34.5906 155.642 32.7403 154.68C15.9222 145.936 10.4101 141.859 10.4101 125.967Z" fill="#117C3C"/>
<path d="M145.036 195.244C140.536 227.457 123.411 251.416 122.536 254.494" stroke="#281910" stroke-width="7.5"/>
<path d="M115.365 194.031C115.365 183.467 119.584 181.29 123.658 179.634C127.733 177.978 129.584 176.148 135.786 175.369C141.001 174.714 142.641 177.202 152.661 179.634C167.536 183.244 161.911 190.068 170.31 194.031C173.325 195.453 175.539 196.635 177.166 197.605C180.392 199.528 180.014 202.762 176.793 204.693C171.167 208.067 161.109 212.694 148.935 212.117C141.173 211.749 139.585 208.079 129.855 207.628C127.772 207.531 125.695 207.108 123.857 206.123C117.501 202.718 115.365 200.663 115.365 194.031Z" fill="#117C3C"/>
<path d="M52.2201 184.452C76.3733 206.236 104.892 213.582 107.541 215.377" stroke="#281910" stroke-width="7.5"/>
<path d="M25.6373 205.418C26.9315 208.368 26.7458 209.719 30.9316 208.368C35.1173 207.017 37.9296 208.808 43.1816 205.418C47.5976 202.567 53.6937 210.047 59.8066 201.743C68.8811 189.416 67.848 192.553 71.7354 184.118C74.435 178.261 74.354 171.297 73.6404 165.921C72.937 160.62 68.1105 157.19 62.8844 158.32C56.4014 159.72 47.4279 162.876 39.728 169.984C34.0181 175.256 35.161 179.088 27.9976 185.687C26.4637 187.1 25.1265 188.753 24.4158 190.714C22.0766 197.167 22.9811 199.363 25.6373 205.418Z" fill="#117C3C"/>
<defs>
<linearGradient id="paint0_linear_1198_2898" x1="174.625" y1="336" x2="308.375" y2="124.625" gradientUnits="userSpaceOnUse">
<stop stop-color="#DB7F13"/>
<stop offset="1" stop-color="#FAFF01"/>
</linearGradient>
</defs>
</svg>
