<svg width="1658" height="1401" viewBox="0 0 1658 1401" fill="none" xmlns="http://www.w3.org/2000/svg">
<path d="M74.7781 1325L25.6781 1185H50.4781L82.5781 1280.5C83.1115 1282.03 83.6448 1283.73 84.1781 1285.6C84.7781 1287.47 85.2781 1289.27 85.6781 1291C86.0781 1289.33 86.5448 1287.6 87.0781 1285.8C87.6115 1284 88.1448 1282.23 88.6781 1280.5L120.178 1185H144.878L95.9781 1325H74.7781ZM168.653 1325V1222.8H191.053V1325H168.653ZM179.753 1208C176.086 1208 172.953 1206.7 170.353 1204.1C167.753 1201.5 166.453 1198.37 166.453 1194.7C166.453 1190.97 167.72 1187.8 170.253 1185.2C172.853 1182.53 176.02 1181.2 179.753 1181.2C183.62 1181.2 186.82 1182.5 189.353 1185.1C191.953 1187.7 193.253 1190.9 193.253 1194.7C193.253 1198.43 191.953 1201.6 189.353 1204.2C186.753 1206.73 183.553 1208 179.753 1208ZM223.141 1325V1222.8H245.541V1232.8C248.741 1228.6 252.574 1225.5 257.041 1223.5C261.574 1221.43 266.741 1220.4 272.541 1220.4C284.341 1220.4 293.307 1224 299.441 1231.2C305.574 1238.4 308.641 1248.97 308.641 1262.9V1325H286.141V1267C286.141 1258.47 284.507 1252.1 281.241 1247.9C278.041 1243.7 273.174 1241.6 266.641 1241.6C259.574 1241.6 254.274 1243.67 250.741 1247.8C247.274 1251.93 245.541 1258.2 245.541 1266.6V1325H223.141ZM380.209 1327.4C370.943 1327.4 362.976 1325.27 356.309 1321C349.643 1316.67 344.509 1310.5 340.909 1302.5C337.309 1294.5 335.509 1285 335.509 1274C335.509 1263 337.343 1253.5 341.009 1245.5C344.676 1237.43 349.876 1231.23 356.609 1226.9C363.343 1222.57 371.376 1220.4 380.709 1220.4C390.643 1220.4 398.976 1222.73 405.709 1227.4C412.443 1232 417.343 1238.77 420.409 1247.7L399.109 1255.1C397.443 1250.77 395.043 1247.43 391.909 1245.1C388.843 1242.77 385.176 1241.6 380.909 1241.6C373.843 1241.6 368.309 1244.47 364.309 1250.2C360.309 1255.93 358.309 1263.87 358.309 1274C358.309 1284 360.276 1291.83 364.209 1297.5C368.143 1303.17 373.543 1306 380.409 1306C385.076 1306 389.076 1304.73 392.409 1302.2C395.743 1299.6 398.176 1295.9 399.709 1291.1L420.909 1297.6C418.043 1307.33 413.109 1314.73 406.109 1319.8C399.176 1324.87 390.543 1327.4 380.209 1327.4ZM487.873 1327.4C478.207 1327.4 469.873 1325.17 462.873 1320.7C455.873 1316.23 450.507 1310 446.773 1302C443.04 1293.93 441.173 1284.53 441.173 1273.8C441.173 1262.67 443.107 1253.13 446.973 1245.2C450.84 1237.2 456.273 1231.07 463.273 1226.8C470.273 1222.53 478.473 1220.4 487.873 1220.4C495.94 1220.4 503.273 1222.13 509.873 1225.6C516.54 1229.07 521.84 1234.4 525.773 1241.6C529.707 1248.73 531.673 1257.83 531.673 1268.9C531.673 1270.63 531.64 1272.7 531.573 1275.1C531.507 1277.43 531.307 1279.8 530.973 1282.2H463.473C463.873 1287.4 465.107 1291.93 467.173 1295.8C469.307 1299.67 472.14 1302.7 475.673 1304.9C479.207 1307.03 483.373 1308.1 488.173 1308.1C492.84 1308.1 496.973 1307.33 500.573 1305.8C504.173 1304.2 507.607 1301.67 510.873 1298.2L523.873 1311.9C519.673 1316.5 514.54 1320.23 508.473 1323.1C502.473 1325.97 495.607 1327.4 487.873 1327.4ZM463.573 1264.1H509.673C509.473 1259.23 508.473 1254.97 506.673 1251.3C504.94 1247.63 502.473 1244.8 499.273 1242.8C496.073 1240.73 492.173 1239.7 487.573 1239.7C481.173 1239.7 475.707 1241.7 471.173 1245.7C466.707 1249.7 464.173 1255.83 463.573 1264.1ZM557.906 1325V1222.8H580.306V1232.8C583.506 1228.6 587.34 1225.5 591.806 1223.5C596.34 1221.43 601.506 1220.4 607.306 1220.4C619.106 1220.4 628.073 1224 634.206 1231.2C640.34 1238.4 643.406 1248.97 643.406 1262.9V1325H620.906V1267C620.906 1258.47 619.273 1252.1 616.006 1247.9C612.806 1243.7 607.94 1241.6 601.406 1241.6C594.34 1241.6 589.04 1243.67 585.506 1247.8C582.04 1251.93 580.306 1258.2 580.306 1266.6V1325H557.906ZM700.583 1327.4C692.849 1327.4 687.016 1325.2 683.083 1320.8C679.149 1316.4 677.183 1309.97 677.183 1301.5V1242.5H661.683V1222.8H677.183V1191.3L699.583 1180.6V1222.8H723.383V1242.5H699.583V1296.6C699.583 1300.27 700.283 1303 701.683 1304.8C703.149 1306.53 705.383 1307.4 708.383 1307.4C713.249 1307.4 718.549 1305.8 724.283 1302.6L721.783 1322.8C718.649 1324.33 715.349 1325.47 711.883 1326.2C708.416 1327 704.649 1327.4 700.583 1327.4ZM862.745 1327.4L826.145 1246C825.545 1244.47 824.879 1242.8 824.145 1241C823.479 1239.2 822.845 1237.5 822.245 1235.9C822.379 1237.23 822.479 1238.9 822.545 1240.9C822.612 1242.83 822.645 1244.53 822.645 1246V1325H799.545V1185H822.245L859.545 1269.4C860.212 1270.87 860.812 1272.33 861.345 1273.8C861.945 1275.27 862.512 1276.8 863.045 1278.4C863.579 1276.87 864.112 1275.37 864.645 1273.9C865.245 1272.37 865.879 1270.87 866.545 1269.4L904.145 1185H925.845V1325H902.745V1246C902.745 1244.4 902.779 1242.6 902.845 1240.6C902.912 1238.53 902.979 1236.93 903.045 1235.8C902.445 1237.27 901.745 1238.97 900.945 1240.9C900.212 1242.83 899.545 1244.53 898.945 1246L862.745 1327.4ZM987.711 1327.4C976.511 1327.4 967.711 1324.37 961.311 1318.3C954.911 1312.23 951.711 1304 951.711 1293.6C951.711 1286.8 953.344 1280.9 956.611 1275.9C959.878 1270.83 964.478 1266.93 970.411 1264.2C976.344 1261.4 983.278 1260 991.211 1260C995.878 1260 1000.31 1260.47 1004.51 1261.4C1008.78 1262.27 1012.58 1263.6 1015.91 1265.4V1258.8C1015.91 1252.27 1014.24 1247.43 1010.91 1244.3C1007.58 1241.1 1002.54 1239.5 995.811 1239.5C990.878 1239.5 985.778 1240.4 980.511 1242.2C975.244 1244 970.078 1246.6 965.011 1250L958.311 1232.1C963.911 1228.37 970.211 1225.5 977.211 1223.5C984.211 1221.43 991.244 1220.4 998.311 1220.4C1011.44 1220.4 1021.28 1223.6 1027.81 1230C1034.41 1236.33 1037.71 1245.87 1037.71 1258.6V1325H1015.91V1316.4C1012.31 1319.93 1008.08 1322.67 1003.21 1324.6C998.344 1326.47 993.178 1327.4 987.711 1327.4ZM992.311 1308.3C996.644 1308.3 1000.84 1307.37 1004.91 1305.5C1009.04 1303.63 1012.71 1300.97 1015.91 1297.5V1283.6C1012.91 1281.93 1009.51 1280.67 1005.71 1279.8C1001.98 1278.87 998.311 1278.4 994.711 1278.4C988.044 1278.4 982.811 1279.77 979.011 1282.5C975.211 1285.17 973.311 1288.87 973.311 1293.6C973.311 1298.13 974.978 1301.73 978.311 1304.4C981.644 1307 986.311 1308.3 992.311 1308.3ZM1099.29 1327.4C1091.62 1327.4 1084.25 1325.77 1077.19 1322.5C1070.12 1319.17 1064.45 1314.73 1060.19 1309.2L1075.19 1296.4C1078.72 1300.07 1082.69 1302.97 1087.09 1305.1C1091.49 1307.23 1095.79 1308.3 1099.99 1308.3C1105.32 1308.3 1109.45 1307.37 1112.39 1305.5C1115.32 1303.57 1116.79 1300.87 1116.79 1297.4C1116.79 1295.27 1116.12 1293.33 1114.79 1291.6C1113.45 1289.8 1111.12 1288.03 1107.79 1286.3C1104.45 1284.57 1099.85 1282.6 1093.99 1280.4C1082.52 1276.2 1074.39 1271.67 1069.59 1266.8C1064.79 1261.87 1062.39 1255.7 1062.39 1248.3C1062.39 1239.97 1065.72 1233.23 1072.39 1228.1C1079.05 1222.97 1087.72 1220.4 1098.39 1220.4C1105.65 1220.4 1112.35 1221.8 1118.49 1224.6C1124.69 1227.33 1130.02 1231.3 1134.49 1236.5L1119.59 1248.8C1113.52 1242.6 1106.32 1239.5 1097.99 1239.5C1093.52 1239.5 1089.95 1240.37 1087.29 1242.1C1084.62 1243.77 1083.29 1246 1083.29 1248.8C1083.29 1251.6 1084.82 1254.1 1087.89 1256.3C1091.02 1258.43 1096.75 1260.93 1105.09 1263.8C1112.69 1266.33 1118.89 1269.17 1123.69 1272.3C1128.55 1275.43 1132.09 1279.03 1134.29 1283.1C1136.55 1287.17 1137.69 1291.87 1137.69 1297.2C1137.69 1306.6 1134.25 1314 1127.39 1319.4C1120.59 1324.73 1111.22 1327.4 1099.29 1327.4ZM1196.16 1327.4C1188.49 1327.4 1181.13 1325.77 1174.06 1322.5C1166.99 1319.17 1161.33 1314.73 1157.06 1309.2L1172.06 1296.4C1175.59 1300.07 1179.56 1302.97 1183.96 1305.1C1188.36 1307.23 1192.66 1308.3 1196.86 1308.3C1202.19 1308.3 1206.33 1307.37 1209.26 1305.5C1212.19 1303.57 1213.66 1300.87 1213.66 1297.4C1213.66 1295.27 1212.99 1293.33 1211.66 1291.6C1210.33 1289.8 1207.99 1288.03 1204.66 1286.3C1201.33 1284.57 1196.73 1282.6 1190.86 1280.4C1179.39 1276.2 1171.26 1271.67 1166.46 1266.8C1161.66 1261.87 1159.26 1255.7 1159.26 1248.3C1159.26 1239.97 1162.59 1233.23 1169.26 1228.1C1175.93 1222.97 1184.59 1220.4 1195.26 1220.4C1202.53 1220.4 1209.23 1221.8 1215.36 1224.6C1221.56 1227.33 1226.89 1231.3 1231.36 1236.5L1216.46 1248.8C1210.39 1242.6 1203.19 1239.5 1194.86 1239.5C1190.39 1239.5 1186.83 1240.37 1184.16 1242.1C1181.49 1243.77 1180.16 1246 1180.16 1248.8C1180.16 1251.6 1181.69 1254.1 1184.76 1256.3C1187.89 1258.43 1193.63 1260.93 1201.96 1263.8C1209.56 1266.33 1215.76 1269.17 1220.56 1272.3C1225.43 1275.43 1228.96 1279.03 1231.16 1283.1C1233.43 1287.17 1234.56 1291.87 1234.56 1297.2C1234.56 1306.6 1231.13 1314 1224.26 1319.4C1217.46 1324.73 1208.09 1327.4 1196.16 1327.4ZM1299.98 1327.4C1290.32 1327.4 1281.98 1325.17 1274.98 1320.7C1267.98 1316.23 1262.62 1310 1258.88 1302C1255.15 1293.93 1253.28 1284.53 1253.28 1273.8C1253.28 1262.67 1255.22 1253.13 1259.08 1245.2C1262.95 1237.2 1268.38 1231.07 1275.38 1226.8C1282.38 1222.53 1290.58 1220.4 1299.98 1220.4C1308.05 1220.4 1315.38 1222.13 1321.98 1225.6C1328.65 1229.07 1333.95 1234.4 1337.88 1241.6C1341.82 1248.73 1343.78 1257.83 1343.78 1268.9C1343.78 1270.63 1343.75 1272.7 1343.68 1275.1C1343.62 1277.43 1343.42 1279.8 1343.08 1282.2H1275.58C1275.98 1287.4 1277.22 1291.93 1279.28 1295.8C1281.42 1299.67 1284.25 1302.7 1287.78 1304.9C1291.32 1307.03 1295.48 1308.1 1300.28 1308.1C1304.95 1308.1 1309.08 1307.33 1312.68 1305.8C1316.28 1304.2 1319.72 1301.67 1322.98 1298.2L1335.98 1311.9C1331.78 1316.5 1326.65 1320.23 1320.58 1323.1C1314.58 1325.97 1307.72 1327.4 1299.98 1327.4ZM1275.68 1264.1H1321.78C1321.58 1259.23 1320.58 1254.97 1318.78 1251.3C1317.05 1247.63 1314.58 1244.8 1311.38 1242.8C1308.18 1240.73 1304.28 1239.7 1299.68 1239.7C1293.28 1239.7 1287.82 1241.7 1283.28 1245.7C1278.82 1249.7 1276.28 1255.83 1275.68 1264.1ZM1370.02 1325V1222.8H1392.42V1234.6C1394.42 1230.2 1397.42 1226.73 1401.42 1224.2C1405.48 1221.67 1409.95 1220.4 1414.82 1220.4C1421.68 1220.4 1427.48 1222.63 1432.22 1227.1L1429.12 1247.8C1426.58 1245.8 1424.05 1244.37 1421.52 1243.5C1418.98 1242.63 1416.18 1242.2 1413.12 1242.2C1408.85 1242.2 1405.18 1243.27 1402.12 1245.4C1399.05 1247.53 1396.65 1250.57 1394.92 1254.5C1393.25 1258.43 1392.42 1263.1 1392.42 1268.5V1325H1370.02ZM1486.78 1327.4C1472.52 1327.4 1461.28 1322.63 1453.08 1313.1C1444.88 1303.57 1440.78 1290.53 1440.78 1274C1440.78 1263 1442.65 1253.5 1446.38 1245.5C1450.12 1237.5 1455.42 1231.33 1462.28 1227C1469.22 1222.6 1477.38 1220.4 1486.78 1220.4C1496.25 1220.4 1504.42 1222.57 1511.28 1226.9C1518.15 1231.23 1523.45 1237.4 1527.18 1245.4C1530.92 1253.4 1532.78 1262.9 1532.78 1273.9C1532.78 1284.9 1530.92 1294.4 1527.18 1302.4C1523.45 1310.4 1518.15 1316.57 1511.28 1320.9C1504.42 1325.23 1496.25 1327.4 1486.78 1327.4ZM1486.78 1306.1C1494.18 1306.1 1499.95 1303.27 1504.08 1297.6C1508.22 1291.93 1510.28 1284.03 1510.28 1273.9C1510.28 1263.7 1508.18 1255.77 1503.98 1250.1C1499.85 1244.43 1494.12 1241.6 1486.78 1241.6C1479.45 1241.6 1473.68 1244.47 1469.48 1250.2C1465.35 1255.87 1463.28 1263.8 1463.28 1274C1463.28 1284.07 1465.35 1291.93 1469.48 1297.6C1473.68 1303.27 1479.45 1306.1 1486.78 1306.1ZM1557.52 1325V1222.8H1579.92V1232.8C1583.12 1228.6 1586.95 1225.5 1591.42 1223.5C1595.95 1221.43 1601.12 1220.4 1606.92 1220.4C1618.72 1220.4 1627.68 1224 1633.82 1231.2C1639.95 1238.4 1643.02 1248.97 1643.02 1262.9V1325H1620.52V1267C1620.52 1258.47 1618.88 1252.1 1615.62 1247.9C1612.42 1243.7 1607.55 1241.6 1601.02 1241.6C1593.95 1241.6 1588.65 1243.67 1585.12 1247.8C1581.65 1251.93 1579.92 1258.2 1579.92 1266.6V1325H1557.52Z" fill="#281910"/>
<path d="M826.316 544.011C832.24 525.611 822.126 505.893 803.726 499.969C785.326 494.046 765.608 504.16 759.684 522.56L826.316 544.011ZM378.784 348.176L367.961 314.892L301.392 336.539L312.216 369.824L378.784 348.176ZM417.203 579.5L383.919 590.324L417.203 579.5ZM777.834 580.393L744.518 569.667V569.667L777.834 580.393ZM629.834 1040.1L663.15 1050.83L629.834 1040.1ZM312.216 369.824L383.919 590.324L450.487 568.676L378.784 348.176L312.216 369.824ZM383.919 590.324L533.729 1051.02L600.298 1029.37L450.487 568.676L383.919 590.324ZM744.518 569.667L596.518 1029.38L663.15 1050.83L811.15 591.119L744.518 569.667ZM759.684 522.56L744.518 569.667L811.15 591.119L826.316 544.011L759.684 522.56ZM598.409 1028C599.269 1028 600.032 1028.55 600.298 1029.37L533.729 1051.02C542.839 1079.03 568.95 1098 598.409 1098V1028ZM598.409 1098C627.942 1098 654.099 1078.94 663.15 1050.83L596.518 1029.38C596.782 1028.56 597.546 1028 598.409 1028V1098Z" fill="#281910"/>
<path d="M840.79 1064L963.01 684.368C967.292 671.067 976.944 660.165 989.628 654.303L1071.59 616.424L1168.34 571.712L1238.4 539.335C1254.88 531.721 1274.18 533.633 1288.85 544.33L1422.99 642.194C1440.42 654.911 1447.72 677.373 1441.11 697.91L1408.73 798.5L1323.25 1064M1493.08 536.5L1399.23 828" stroke="#281910" stroke-width="70" stroke-linecap="round"/>
<path fill-rule="evenodd" clip-rule="evenodd" d="M1420.51 566.116L1433.58 525.512C1408.73 272.6 1195.44 75 936 75C694.313 75 492.677 246.48 446.122 474.41L474.262 560.945L598.28 942.324L705.555 609.113L720.721 562.006L735.887 514.898C746.042 483.356 779.845 466.017 811.387 476.172C842.93 486.327 860.268 520.13 850.113 551.673L834.947 598.78L819.782 645.887L700.559 1016.21C726.502 1030.08 753.81 1041.73 782.231 1050.91C782.629 1049.14 783.11 1047.37 783.677 1045.61L905.897 665.981C915.317 636.719 936.553 612.734 964.458 599.838L1046.42 561.959L1143.17 517.247L1213.23 484.87C1249.48 468.119 1291.95 472.325 1324.21 495.858L1420.51 566.116ZM1342.11 809.646L1311.27 905.417C1219.65 1009.4 1085.49 1075 936 1075C924.124 1075 912.345 1074.59 900.677 1073.77L1018.78 706.929L1096.76 670.89L1193.51 626.177L1258.23 596.267L1381.78 686.405L1351.62 780.113L1342.12 809.613L1342.11 809.646Z" fill="url(#paint0_linear_340_150)"/>
<path d="M41.6398 292.869C41.6398 198.869 79.1793 179.498 115.437 164.765C151.695 150.033 209.728 138.934 264.92 132.005C311.326 126.179 419.248 164.377 447 164.765C538.953 166.052 526.797 138.715 601.535 173.972C666.117 204.439 660.293 271.371 647.776 315.525C640.752 340.304 612.838 351.977 587.458 347.596C554.876 341.971 501.27 335.354 417.14 331.369C344.042 327.907 261.411 404.848 154.992 412.946C146.673 413.579 138.362 411.568 130.961 407.72C63.6883 372.742 41.6398 356.436 41.6398 292.869Z" fill="#117C3C"/>
<path d="M580.144 569.976C562.144 698.827 493.644 794.664 490.144 806.976" stroke="#281910" stroke-width="30"/>
<path d="M461.459 565.123C461.459 522.867 478.334 514.159 494.633 507.536C510.932 500.913 518.334 493.59 543.144 490.476C564.005 487.856 570.563 497.809 610.644 507.536C670.144 521.975 647.643 549.273 681.24 565.123C693.298 570.811 702.157 575.541 708.665 579.42C721.567 587.111 720.055 600.047 707.173 607.772C684.667 621.269 644.437 639.775 595.74 637.468C564.691 635.998 558.34 621.316 519.421 619.512C511.088 619.126 502.779 617.434 495.426 613.494C470.002 599.87 461.459 591.653 461.459 565.123Z" fill="#117C3C"/>
<path d="M208.878 526.808C305.491 613.944 419.568 643.328 430.163 650.51" stroke="#281910" stroke-width="30"/>
<path d="M102.55 610.672C107.726 622.473 106.984 627.876 123.726 622.473C140.469 617.069 151.719 624.233 172.727 610.672C190.391 599.269 214.775 629.188 239.226 595.973C275.525 546.666 271.392 559.21 286.942 525.473C297.74 502.043 297.416 474.189 294.562 452.683C291.748 431.482 272.442 417.761 251.538 422.278C225.606 427.882 189.712 440.505 158.912 468.938C136.073 490.022 140.644 505.351 111.991 531.749C105.855 537.402 100.506 544.012 97.6636 551.854C88.3066 577.669 91.9247 586.452 102.55 610.672Z" fill="#117C3C"/>
<defs>
<linearGradient id="paint0_linear_340_150" x1="698.5" y1="1133" x2="1233.5" y2="287.5" gradientUnits="userSpaceOnUse">
<stop stop-color="#DB7F13"/>
<stop offset="1" stop-color="#FAFF01"/>
</linearGradient>
</defs>
</svg>
