<?xml version="1.0" standalone="no"?>
<!DOCTYPE svg PUBLIC "-//W3C//DTD SVG 20010904//EN"
 "http://www.w3.org/TR/2001/REC-SVG-20010904/DTD/svg10.dtd">
<svg version="1.0" xmlns="http://www.w3.org/2000/svg"
 width="700.000000pt" height="700.000000pt" viewBox="0 0 700.000000 700.000000"
 preserveAspectRatio="xMidYMid meet">
<metadata>
Created by potrace 1.14, written by Peter Selinger 2001-2017
</metadata>
<g transform="translate(0.000000,700.000000) scale(0.100000,-0.100000)"
fill="#000000" stroke="none">
<path d="M3949 5746 c-2 -2 -40 -7 -84 -10 -44 -4 -87 -9 -95 -11 -8 -2 -33
-6 -55 -10 -289 -42 -672 -207 -922 -397 -35 -26 -66 -48 -69 -48 -3 0 -51 23
-108 50 -105 52 -205 79 -265 74 -19 -2 -80 -10 -135 -19 -206 -31 -271 -27
-512 34 -346 87 -461 102 -606 82 -46 -7 -99 -15 -118 -17 -186 -28 -421 -91
-534 -144 -128 -61 -212 -166 -241 -304 -2 -12 -7 -32 -10 -46 -11 -47 -13
-255 -3 -310 27 -150 107 -234 335 -352 105 -54 120 -56 258 -33 78 13 260 66
320 94 38 18 210 93 231 101 20 8 24 0 64 -123 51 -160 311 -957 318 -976 6
-15 -13 -11 -92 23 -141 60 -436 223 -436 240 0 3 20 46 45 98 52 107 58 138
58 270 0 82 -4 102 -24 139 -28 50 -84 83 -139 81 -92 -4 -265 -76 -368 -154
-83 -63 -100 -83 -162 -183 -27 -44 -70 -102 -96 -130 -60 -64 -71 -81 -87
-137 -19 -62 -13 -114 23 -202 29 -68 50 -93 69 -82 12 8 61 16 121 22 30 3
79 16 108 29 35 16 63 22 85 19 128 -20 152 -18 189 19 25 25 64 73 78 96 7
11 18 7 62 -21 139 -92 323 -185 518 -264 l104 -42 49 -148 c26 -82 102 -315
168 -519 66 -203 133 -408 149 -455 15 -47 67 -206 115 -355 53 -165 99 -289
117 -318 75 -118 235 -165 367 -106 90 40 141 108 186 249 36 116 190 596 223
695 14 44 27 82 27 85 1 3 15 48 32 100 70 213 187 576 189 585 2 11 69 219
114 355 89 268 112 353 108 395 -11 93 -99 150 -193 124 -65 -18 -87 -53 -144
-231 -29 -89 -97 -300 -151 -468 -54 -168 -135 -420 -180 -560 -45 -140 -90
-280 -100 -310 -20 -60 -182 -564 -207 -645 -18 -57 -33 -79 -33 -49 0 12 -3
24 -7 28 -4 3 -8 12 -9 19 -2 7 -29 93 -62 192 -146 443 -252 773 -252 783 0
8 54 116 66 130 1 2 48 -137 104 -310 56 -172 117 -358 135 -413 l32 -100 73
225 c40 124 101 313 135 420 35 107 100 310 145 450 45 140 89 278 98 305 9
28 29 62 44 77 29 28 34 48 19 76 -9 17 78 304 111 367 61 116 228 164 346
100 63 -34 87 -60 117 -122 37 -75 29 -153 -34 -343 -28 -85 -65 -198 -82
-250 -69 -216 -213 -665 -259 -805 -27 -82 -81 -251 -121 -375 -39 -124 -88
-275 -108 -336 l-37 -111 60 -31 c141 -71 295 -127 301 -109 10 28 58 177 125
387 39 124 82 257 95 295 21 62 55 169 242 750 76 237 94 288 120 333 33 58
129 152 184 179 57 29 239 114 359 168 52 23 136 62 185 85 50 23 117 55 150
70 33 15 123 57 200 93 300 139 299 138 400 142 159 7 218 -20 510 -234 l219
-161 29 88 c28 85 31 140 12 227 -3 11 -7 32 -10 48 -10 55 -16 83 -26 122
-163 638 -583 1157 -1164 1440 -184 89 -374 153 -555 185 -36 7 -74 14 -85 16
-62 11 -118 15 -281 19 -99 3 -183 3 -185 1z m-1904 -1132 c55 -4 106 -7 113
-7 6 0 12 -2 12 -4 0 -1 -20 -43 -45 -92 -25 -49 -45 -93 -45 -98 0 -4 -6 -20
-14 -34 -15 -30 -88 -260 -105 -330 -9 -41 -7 -56 33 -179 36 -109 42 -139 35
-164 -15 -50 -8 -167 11 -206 10 -19 38 -50 63 -67 42 -31 46 -38 82 -150 20
-65 52 -161 69 -213 18 -52 31 -102 29 -111 -7 -29 -61 -130 -66 -122 -2 4
-51 150 -107 323 -56 173 -127 392 -157 485 -30 94 -72 222 -93 285 -73 221
-212 655 -214 665 0 5 24 15 54 21 55 12 155 11 345 -2z"/>
<path d="M5425 3882 c-20 -4 -228 -97 -420 -187 -87 -41 -194 -90 -395 -182
-371 -170 -410 -191 -459 -243 -60 -64 -59 -61 -346 -955 -53 -165 -137 -426
-187 -580 -50 -154 -90 -296 -91 -316 0 -75 71 -149 144 -149 94 0 133 41 181
191 20 63 82 256 138 429 56 173 122 376 145 450 142 444 229 707 238 719 7 7
30 22 52 31 22 10 69 31 105 48 36 16 130 60 210 97 176 81 214 99 353 164 60
28 110 51 112 51 2 0 57 25 122 56 159 75 185 84 209 71 32 -17 567 -408 597
-435 15 -14 27 -35 27 -47 0 -20 -35 -133 -180 -580 -34 -104 -97 -302 -141
-440 -44 -137 -103 -320 -131 -405 -69 -215 -75 -240 -67 -279 20 -96 125
-147 215 -105 60 29 64 38 179 399 37 116 93 291 125 390 126 388 204 630 205
635 0 3 10 34 22 70 30 91 117 360 212 655 44 138 82 264 84 280 11 84 -63
166 -152 167 -93 1 -123 -40 -196 -266 -33 -102 -63 -186 -67 -186 -3 0 -129
90 -279 199 -263 192 -318 228 -385 249 -31 10 -142 12 -179 4z"/>
<path d="M5465 3449 c-22 -10 -80 -37 -130 -59 -139 -64 -581 -269 -665 -308
-41 -19 -106 -49 -145 -67 -64 -29 -71 -35 -81 -71 -6 -21 -55 -174 -108 -339
-158 -488 -291 -900 -344 -1065 l-49 -155 26 -6 c34 -7 244 -3 341 6 342 32
684 152 975 342 143 93 215 152 341 278 l111 110 31 95 c64 202 186 581 228
709 24 74 44 140 44 147 0 7 -48 48 -107 90 -60 43 -157 115 -218 159 -60 44
-132 97 -160 117 l-50 36 -40 -19z"/>
</g>
</svg>
