<svg width="25" height="25" viewBox="0 0 25 25" fill="none" xmlns="http://www.w3.org/2000/svg">
<path d="M12.5 6.14591C13.7084 6.14591 14.6875 7.12508 14.6875 8.33342C14.6875 9.54175 13.7084 10.5209 12.5 10.5209C11.2917 10.5209 10.3125 9.54175 10.3125 8.33342C10.3125 7.12508 11.2917 6.14591 12.5 6.14591ZM12.5 15.5209C15.5938 15.5209 18.8542 17.0417 18.8542 17.7084V18.8542H6.14585V17.7084C6.14585 17.0417 9.40627 15.5209 12.5 15.5209ZM12.5 4.16675C10.1979 4.16675 8.33335 6.03133 8.33335 8.33342C8.33335 10.6355 10.1979 12.5001 12.5 12.5001C14.8021 12.5001 16.6667 10.6355 16.6667 8.33342C16.6667 6.03133 14.8021 4.16675 12.5 4.16675ZM12.5 13.5417C9.71877 13.5417 4.16669 14.9376 4.16669 17.7084V20.8334H20.8334V17.7084C20.8334 14.9376 15.2813 13.5417 12.5 13.5417Z"/>
</svg>
